<svg width="52" height="52" viewBox="0 0 52 52" fill="none" xmlns="http://www.w3.org/2000/svg">
<rect width="52" height="52" rx="10" fill="white"/>
<path d="M31.34 19.46C31.1027 19.46 30.8707 19.5304 30.6733 19.6622C30.476 19.7941 30.3222 19.9815 30.2313 20.2008C30.1405 20.4201 30.1168 20.6613 30.1631 20.8941C30.2094 21.1269 30.3236 21.3407 30.4915 21.5085C30.6593 21.6764 30.8731 21.7906 31.1059 21.8369C31.3387 21.8832 31.5799 21.8595 31.7992 21.7687C32.0185 21.6778 32.2059 21.524 32.3378 21.3267C32.4696 21.1293 32.54 20.8973 32.54 20.66C32.54 20.3417 32.4136 20.0365 32.1885 19.8115C31.9635 19.5864 31.6583 19.46 31.34 19.46ZM35.94 21.88C35.9206 21.0503 35.7652 20.2294 35.48 19.45C35.2257 18.7831 34.83 18.1793 34.32 17.68C33.8248 17.1674 33.2196 16.7742 32.55 16.53C31.7727 16.2362 30.9508 16.0772 30.12 16.06C29.06 16 28.72 16 26 16C23.28 16 22.94 16 21.88 16.06C21.0492 16.0772 20.2273 16.2362 19.45 16.53C18.7817 16.7766 18.1769 17.1696 17.68 17.68C17.1674 18.1752 16.7742 18.7804 16.53 19.45C16.2362 20.2273 16.0772 21.0492 16.06 21.88C16 22.94 16 23.28 16 26C16 28.72 16 29.06 16.06 30.12C16.0772 30.9508 16.2362 31.7727 16.53 32.55C16.7742 33.2196 17.1674 33.8248 17.68 34.32C18.1769 34.8304 18.7817 35.2234 19.45 35.47C20.2273 35.7638 21.0492 35.9228 21.88 35.94C22.94 36 23.28 36 26 36C28.72 36 29.06 36 30.12 35.94C30.9508 35.9228 31.7727 35.7638 32.55 35.47C33.2196 35.2258 33.8248 34.8326 34.32 34.32C34.8322 33.8226 35.2283 33.2182 35.48 32.55C35.7652 31.7706 35.9206 30.9497 35.94 30.12C35.94 29.06 36 28.72 36 26C36 23.28 36 22.94 35.94 21.88ZM34.14 30C34.1327 30.6348 34.0178 31.2637 33.8 31.86C33.6403 32.2952 33.3839 32.6884 33.05 33.01C32.7256 33.3405 32.3332 33.5964 31.9 33.76C31.3037 33.9778 30.6748 34.0927 30.04 34.1C29.04 34.15 28.67 34.16 26.04 34.16C23.41 34.16 23.04 34.16 22.04 34.1C21.3809 34.1123 20.7246 34.0109 20.1 33.8C19.6858 33.6281 19.3114 33.3728 19 33.05C18.6681 32.7287 18.4148 32.3352 18.26 31.9C18.0159 31.2952 17.8804 30.6519 17.86 30C17.86 29 17.8 28.63 17.8 26C17.8 23.37 17.8 23 17.86 22C17.8645 21.3511 17.983 20.7079 18.21 20.1C18.386 19.6779 18.6563 19.3017 19 19C19.3038 18.6562 19.6793 18.3831 20.1 18.2C20.7096 17.98 21.352 17.8651 22 17.86C23 17.86 23.37 17.8 26 17.8C28.63 17.8 29 17.8 30 17.86C30.6348 17.8673 31.2637 17.9822 31.86 18.2C32.3144 18.3687 32.7223 18.6428 33.05 19C33.3777 19.3072 33.6338 19.6827 33.8 20.1C34.0223 20.7089 34.1373 21.3518 34.14 22C34.19 23 34.2 23.37 34.2 26C34.2 28.63 34.19 29 34.14 30ZM26 20.87C24.9858 20.872 23.995 21.1745 23.1527 21.7394C22.3103 22.3043 21.6544 23.1062 21.2676 24.0438C20.8809 24.9813 20.7807 26.0125 20.9798 27.0069C21.1789 28.0014 21.6682 28.9145 22.3861 29.631C23.1039 30.3474 24.018 30.835 25.0129 31.0321C26.0077 31.2293 27.0387 31.1271 27.9755 30.7385C28.9123 30.35 29.7129 29.6924 30.2761 28.849C30.8394 28.0056 31.14 27.0142 31.14 26C31.1413 25.3251 31.0092 24.6566 30.7512 24.033C30.4933 23.4093 30.1146 22.8428 29.6369 22.3661C29.1592 21.8893 28.5919 21.5117 27.9678 21.2549C27.3436 20.9982 26.6749 20.8674 26 20.87ZM26 29.33C25.3414 29.33 24.6976 29.1347 24.15 28.7688C23.6023 28.4029 23.1755 27.8828 22.9235 27.2743C22.6714 26.6659 22.6055 25.9963 22.734 25.3503C22.8625 24.7044 23.1796 24.111 23.6453 23.6453C24.111 23.1796 24.7044 22.8625 25.3503 22.734C25.9963 22.6055 26.6659 22.6714 27.2743 22.9235C27.8828 23.1755 28.4029 23.6023 28.7688 24.15C29.1347 24.6976 29.33 25.3414 29.33 26C29.33 26.4373 29.2439 26.8703 29.0765 27.2743C28.9092 27.6784 28.6639 28.0454 28.3547 28.3547C28.0454 28.6639 27.6784 28.9092 27.2743 29.0765C26.8703 29.2439 26.4373 29.33 26 29.33Z" fill="#474FFF"/>
</svg>
