<svg width="52" height="52" viewBox="0 0 52 52" fill="none" xmlns="http://www.w3.org/2000/svg">
<rect width="52" height="52" rx="10" fill="white"/>
<g clip-path="url(#clip0_94_2469)">
<path d="M17 19.9747C17 19.4023 17.2027 18.9301 17.6081 18.5581C18.0135 18.186 18.5405 18 19.1892 18C19.8263 18 20.3417 18.1832 20.7355 18.5495C21.1409 18.9273 21.3436 19.4195 21.3436 20.0263C21.3436 20.5758 21.1467 21.0337 20.7529 21.4C20.3475 21.7778 19.8147 21.9667 19.1544 21.9667H19.1371C18.5 21.9667 17.9846 21.7778 17.5907 21.4C17.1969 21.0222 17 20.5471 17 19.9747ZM17.2259 35V23.5293H21.083V35H17.2259ZM23.2201 35H27.0772V28.5949C27.0772 28.1942 27.1236 27.8852 27.2162 27.6677C27.3784 27.2784 27.6245 26.9493 27.9546 26.6803C28.2847 26.4113 28.6988 26.2768 29.1969 26.2768C30.4942 26.2768 31.1429 27.1411 31.1429 28.8697V35H35V28.4232C35 26.7289 34.5946 25.4439 33.7838 24.5682C32.973 23.6924 31.9016 23.2545 30.5695 23.2545C29.0753 23.2545 27.9112 23.8899 27.0772 25.1606V25.1949H27.0598L27.0772 25.1606V23.5293H23.2201C23.2432 23.8956 23.2548 25.0347 23.2548 26.9464C23.2548 28.8582 23.2432 31.5427 23.2201 35Z" fill="#474FFF"/>
</g>
<defs>
<clipPath id="clip0_94_2469">
<rect width="18" height="17" fill="white" transform="translate(17 18)"/>
</clipPath>
</defs>
</svg>
