<svg width="181" height="40" viewBox="0 0 181 40" fill="none" xmlns="http://www.w3.org/2000/svg">
<g clip-path="url(#clip0_416_3984)">
<path d="M68.433 22.5843C68.4659 20.8168 68.0466 19.0702 67.2147 17.5103C66.4301 16.0722 65.2447 14.893 63.8026 14.1159C62.2314 13.3209 60.4941 12.9096 58.7333 12.9157C56.9724 12.9219 55.238 13.3454 53.6725 14.1514C52.2 14.9721 50.9995 16.2054 50.2189 17.6996C49.3718 19.3437 48.947 21.1727 48.9829 23.0219C48.9436 24.8735 49.375 26.7048 50.2366 28.3442C51.0351 29.8372 52.2463 31.0689 53.7257 31.8924C55.2801 32.742 57.0284 33.174 58.7996 33.1461C60.918 33.216 62.9991 32.5771 64.7133 31.3306C66.1955 30.2321 67.3008 28.7012 67.8771 26.9486H62.8209C62.4478 27.7162 61.8553 28.3558 61.1184 28.7864C60.3814 29.217 59.5333 29.4191 58.6813 29.3672C57.4218 29.3975 56.1993 28.9398 55.2692 28.0899C54.3128 27.1623 53.7496 25.9025 53.6961 24.5713V24.3584H68.3206C68.4011 23.7705 68.4387 23.1776 68.433 22.5843ZM53.7079 21.3424L53.7375 21.1177C53.8664 19.8639 54.4464 18.6996 55.3697 17.8415C56.2761 17.0487 57.448 16.6264 58.6518 16.6588C59.9228 16.6247 61.1622 17.0581 62.1349 17.877C62.6052 18.2794 62.981 18.7806 63.2355 19.3448C63.49 19.909 63.617 20.5224 63.6074 21.1413V21.3424H53.7079Z" fill="#1D1D1B"/>
<path d="M79.4561 13.2407H75.9611V12.2117C75.9611 11.029 76.2272 10.1892 76.7476 9.72206C77.268 9.25488 78.0604 9.05973 79.2432 9.05382V5.19811C76.5761 5.16262 74.5773 5.68895 73.2645 6.78297C71.9516 7.877 71.2479 9.65701 71.2479 12.0284V13.2407H68.9771V16.984H71.2479V32.7972H75.9788V16.984H79.4738L79.4561 13.2407Z" fill="#1D1D1B"/>
<path d="M98.894 26.9249H93.8438C93.4707 27.6925 92.8781 28.3322 92.1412 28.7628C91.4043 29.1933 90.5561 29.3955 89.7042 29.3436C88.4446 29.3738 87.2221 28.9161 86.292 28.0662C85.3356 27.1386 84.7725 25.8789 84.719 24.5476V24.3347H99.3553C99.4358 23.7469 99.4733 23.1539 99.4676 22.5606C99.5006 20.7931 99.0812 19.0466 98.2494 17.4867C97.4632 16.0498 96.2782 14.871 94.8373 14.0922C93.2661 13.2972 91.5288 12.8859 89.7679 12.8921C88.0071 12.8982 86.2727 13.3217 84.7072 14.1277C83.2347 14.9485 82.0342 16.1818 81.2536 17.6759C80.4064 19.32 79.9817 21.1491 80.0176 22.9982C79.9783 24.8498 80.4097 26.6811 81.2713 28.3205C82.0698 29.8135 83.281 31.0452 84.7604 31.8687C86.3146 32.7189 88.063 33.1509 89.8343 33.1224C91.9526 33.1924 94.0338 32.5534 95.7479 31.3069C97.2236 30.2058 98.3225 28.6752 98.894 26.9249V26.9249ZM84.7722 21.1177C84.9 19.8636 85.4802 18.6989 86.4044 17.8415C87.3108 17.0487 88.4826 16.6264 89.6864 16.6588C90.9575 16.6247 92.1969 17.0581 93.1696 17.877C93.6399 18.2794 94.0157 18.7806 94.2702 19.3448C94.5247 19.909 94.6517 20.5224 94.6421 21.1413V21.3424H84.7545L84.7722 21.1177Z" fill="#1D1D1B"/>
<path d="M116.156 14.7309C114.406 13.4719 112.285 12.833 110.13 12.9154C108.377 12.8838 106.647 13.3163 105.115 14.1691C103.661 15.0023 102.475 16.2332 101.697 17.7173C100.885 19.3739 100.462 21.1945 100.462 23.0396C100.462 24.8847 100.885 26.7053 101.697 28.3619C102.477 29.8448 103.663 31.0754 105.115 31.9101C106.647 32.7634 108.377 33.196 110.13 33.1638C112.285 33.2408 114.402 32.5817 116.132 31.2951C117.676 30.0835 118.779 28.3985 119.273 26.4991H114.234C113.566 28.3205 112.17 29.2371 110.095 29.2371C109.412 29.2628 108.732 29.128 108.111 28.8435C107.49 28.5591 106.944 28.1328 106.517 27.599C105.653 26.5227 105.216 24.997 105.216 23.0573C105.216 21.1177 105.653 19.5624 106.517 18.4861C106.943 17.9516 107.489 17.5245 108.11 17.239C108.732 16.9535 109.411 16.8176 110.095 16.8421C111.04 16.8137 111.97 17.0871 112.75 17.6227C113.44 18.1192 113.958 18.8176 114.234 19.6215H119.279C118.822 17.6844 117.721 15.9599 116.156 14.7309V14.7309Z" fill="#1D1D1B"/>
<path d="M128.61 32.7972H131.567V28.9474H129.426C128.793 29.0048 128.161 28.8257 127.652 28.4447C127.455 28.2286 127.305 27.9742 127.21 27.6975C127.116 27.4209 127.079 27.1277 127.102 26.8362V16.984H131.573V13.2407H127.102V8.30278H122.425V13.2407H120.059V16.984H122.425V26.8125C122.436 30.8397 124.453 32.7972 128.61 32.7972Z" fill="#1D1D1B"/>
<path d="M138.462 13.2348H133.814V32.7972H138.462V13.2348Z" fill="#1D1D1B"/>
<path d="M155.34 13.2348L150.154 28.9829L144.968 13.2348H139.988L147.197 32.7972H153.04L160.278 13.2348H155.34Z" fill="#1D1D1B"/>
<path d="M175.772 14.1691C174.187 13.3455 172.428 12.9155 170.642 12.9155C168.856 12.9155 167.096 13.3455 165.512 14.1691C163.998 14.9896 162.746 16.2191 161.898 17.7173C160.99 19.3414 160.532 21.1791 160.574 23.0396C160.534 24.8955 160.979 26.7297 161.863 28.3619C162.687 29.8561 163.917 31.0863 165.411 31.9101C166.972 32.7584 168.726 33.1902 170.503 33.1638C172.308 33.1891 174.089 32.7579 175.683 31.9101C177.209 31.0863 178.48 29.8589 179.355 28.3619C180.283 26.7441 180.753 24.9043 180.716 23.0396C180.754 21.1794 180.297 19.3425 179.391 17.7173C178.54 16.2197 177.286 14.9905 175.772 14.1691V14.1691ZM175.18 26.3572C174.727 27.2287 174.031 27.9499 173.176 28.4329C172.359 28.8888 171.438 29.127 170.503 29.1248C169.803 29.1405 169.108 29.0062 168.464 28.7307C167.82 28.4553 167.243 28.0452 166.771 27.5281C165.789 26.4755 165.299 24.9556 165.299 23.016C165.299 21.0763 165.807 19.5565 166.813 18.5038C167.292 17.9888 167.875 17.5809 168.523 17.3067C169.171 17.0326 169.87 16.8984 170.574 16.9131C171.282 16.9004 171.986 17.0353 172.639 17.3092C173.293 17.5831 173.882 17.9899 174.37 18.5038C175.405 19.5565 175.925 21.0763 175.925 23.016C175.956 24.1741 175.7 25.3219 175.18 26.3572V26.3572Z" fill="#1D1D1B"/>
<path d="M20 0C14.6957 0 9.6086 2.10713 5.85788 5.85786C2.10715 9.60859 0 14.6957 0 20C0 25.3043 2.10715 30.3914 5.85788 34.1421C9.6086 37.8929 14.6957 40 20 40H20.3016C24.4049 39.9138 28.3843 38.5781 31.7085 36.171C35.0327 33.764 37.5436 30.4002 38.906 26.5287H30.4021C29.2938 28.2881 27.7594 29.7395 25.9412 30.7484C24.1229 31.7573 22.0794 32.2911 20 32.3004H19.4619C17.4639 32.214 15.5173 31.6416 13.7906 30.6328C12.0639 29.624 10.6094 28.2092 9.55317 26.5111C8.49694 24.813 7.87086 22.8829 7.72923 20.8881C7.5876 18.8934 7.93469 16.8942 8.74041 15.0639C9.54612 13.2336 10.7861 11.6275 12.3529 10.3848C13.9197 9.14213 15.766 8.3004 17.7317 7.9326C19.6974 7.56481 21.7231 7.68206 23.6332 8.27418C25.5433 8.8663 27.2801 9.91543 28.6931 11.3306L29.0716 11.709L21.2951 19.4855H39.9941C39.851 14.2748 37.6828 9.32504 33.9497 5.68692C30.2167 2.0488 25.2126 0.00880593 20 0Z" fill="#4B54F9"/>
</g>
<defs>
<clipPath id="clip0_416_3984">
<rect width="180.686" height="40" fill="white"/>
</clipPath>
</defs>
</svg>
