<svg width="181" height="40" viewBox="0 0 181 40" fill="none" xmlns="http://www.w3.org/2000/svg">
<g clip-path="url(#clip0_427_2106)">
<path d="M68.433 22.5841C68.4659 20.8166 68.0466 19.0701 67.2147 17.5102C66.4301 16.0721 65.2447 14.8929 63.8026 14.1158C62.2314 13.3207 60.4941 12.9094 58.7333 12.9156C56.9724 12.9218 55.238 13.3452 53.6725 14.1512C52.2 14.972 50.9995 16.2053 50.2189 17.6994C49.3718 19.3435 48.947 21.1726 48.9829 23.0217C48.9436 24.8733 49.375 26.7046 50.2366 28.344C51.0351 29.837 52.2463 31.0688 53.7257 31.8922C55.2801 32.7419 57.0284 33.1738 58.7996 33.1459C60.918 33.2159 62.9991 32.577 64.7133 31.3304C66.1955 30.2319 67.3008 28.701 67.8771 26.9484H62.8209C62.4478 27.7161 61.8553 28.3557 61.1184 28.7863C60.3814 29.2169 59.5333 29.419 58.6813 29.3671C57.4218 29.3973 56.1993 28.9397 55.2692 28.0897C54.3128 27.1621 53.7496 25.9024 53.6961 24.5711V24.3582H68.3206C68.4011 23.7704 68.4387 23.1774 68.433 22.5841ZM53.7079 21.3423L53.7375 21.1175C53.8664 19.8637 54.4464 18.6994 55.3697 17.8414C56.2761 17.0486 57.448 16.6263 58.6518 16.6586C59.9228 16.6245 61.1622 17.058 62.1349 17.8769C62.6052 18.2793 62.981 18.7805 63.2355 19.3447C63.49 19.9089 63.617 20.5223 63.6074 21.1412V21.3423H53.7079Z" fill="white"/>
<path d="M79.4561 13.2405H75.9611V12.2116C75.9611 11.0288 76.2272 10.1891 76.7476 9.72193C77.268 9.25475 78.0604 9.05959 79.2432 9.05368V5.19797C76.5761 5.16249 74.5773 5.68881 73.2645 6.78284C71.9516 7.87686 71.2479 9.65687 71.2479 12.0282V13.2405H68.9771V16.9839H71.2479V32.797H75.9788V16.9839H79.4738L79.4561 13.2405Z" fill="white"/>
<path d="M98.894 26.925H93.8438C93.4707 27.6926 92.8781 28.3323 92.1412 28.7628C91.4043 29.1934 90.5561 29.3956 89.7042 29.3437C88.4446 29.3739 87.2221 28.9162 86.292 28.0663C85.3356 27.1387 84.7725 25.8789 84.719 24.5477V24.3348H99.3553C99.4358 23.7469 99.4733 23.154 99.4676 22.5607C99.5006 20.7932 99.0812 19.0466 98.2494 17.4868C97.4632 16.0499 96.2782 14.8711 94.8373 14.0923C93.2661 13.2973 91.5288 12.886 89.7679 12.8922C88.0071 12.8983 86.2727 13.3218 84.7072 14.1278C83.2347 14.9485 82.0342 16.1819 81.2536 17.676C80.4064 19.3201 79.9817 21.1491 80.0176 22.9983C79.9783 24.8499 80.4097 26.6812 81.2713 28.3206C82.0698 29.8136 83.281 31.0453 84.7604 31.8688C86.3146 32.7189 88.063 33.151 89.8343 33.1225C91.9526 33.1924 94.0338 32.5535 95.7479 31.307C97.2236 30.2059 98.3225 28.6752 98.894 26.925ZM84.7722 21.1178C84.9 19.8636 85.4802 18.699 86.4044 17.8416C87.3108 17.0488 88.4826 16.6265 89.6864 16.6589C90.9575 16.6247 92.1969 17.0582 93.1696 17.8771C93.6399 18.2795 94.0157 18.7807 94.2702 19.3449C94.5247 19.9091 94.6517 20.5225 94.6421 21.1414V21.3425H84.7545L84.7722 21.1178Z" fill="white"/>
<path d="M116.156 14.7308C114.406 13.4718 112.285 12.8329 110.13 12.9153C108.377 12.8837 106.647 13.3162 105.115 14.169C103.661 15.0021 102.475 16.2331 101.697 17.7172C100.885 19.3738 100.462 21.1944 100.462 23.0395C100.462 24.8846 100.885 26.7052 101.697 28.3618C102.477 29.8447 103.663 31.0753 105.115 31.91C106.647 32.7633 108.377 33.1958 110.13 33.1637C112.285 33.2407 114.402 32.5816 116.132 31.2949C117.676 30.0833 118.779 28.3984 119.273 26.499H114.234C113.566 28.3204 112.17 29.237 110.095 29.237C109.412 29.2627 108.732 29.1279 108.111 28.8434C107.49 28.5589 106.944 28.1327 106.517 27.5989C105.653 26.5226 105.216 24.9969 105.216 23.0572C105.216 21.1175 105.653 19.5622 106.517 18.486C106.943 17.9515 107.489 17.5243 108.11 17.2388C108.732 16.9533 109.411 16.8174 110.095 16.842C111.04 16.8135 111.97 17.0869 112.75 17.6226C113.44 18.1191 113.958 18.8175 114.234 19.6214H119.279C118.822 17.6843 117.721 15.9598 116.156 14.7308Z" fill="white"/>
<path d="M128.61 32.7971H131.567V28.9473H129.426C128.793 29.0047 128.161 28.8257 127.652 28.4447C127.455 28.2285 127.305 27.9742 127.21 27.6975C127.116 27.4208 127.079 27.1276 127.102 26.8362V16.984H131.573V13.2406H127.102V8.30273H122.425V13.2406H120.059V16.984H122.425V26.8125C122.436 30.8397 124.453 32.7971 128.61 32.7971Z" fill="white"/>
<path d="M138.462 13.2349H133.814V32.7973H138.462V13.2349Z" fill="white"/>
<path d="M155.34 13.2349L150.154 28.9829L144.968 13.2349H139.988L147.197 32.7973H153.04L160.278 13.2349H155.34Z" fill="white"/>
<path d="M175.772 14.1691C174.187 13.3455 172.428 12.9155 170.642 12.9155C168.856 12.9155 167.096 13.3455 165.512 14.1691C163.998 14.9896 162.746 16.2192 161.898 17.7173C160.99 19.3414 160.532 21.1791 160.574 23.0396C160.534 24.8955 160.979 26.7297 161.863 28.3619C162.687 29.8561 163.917 31.0864 165.411 31.9101C166.972 32.7585 168.726 33.1902 170.503 33.1638C172.308 33.1892 174.089 32.7579 175.683 31.9101C177.209 31.0863 178.48 29.8589 179.355 28.3619C180.283 26.7441 180.753 24.9043 180.716 23.0396C180.754 21.1794 180.297 19.3425 179.391 17.7173C178.54 16.2197 177.286 14.9905 175.772 14.1691ZM175.18 26.3572C174.727 27.2288 174.031 27.9499 173.176 28.4329C172.359 28.8888 171.438 29.1271 170.503 29.1248C169.803 29.1405 169.108 29.0062 168.464 28.7308C167.82 28.4553 167.243 28.0453 166.771 27.5281C165.789 26.4755 165.299 24.9557 165.299 23.016C165.299 21.0763 165.807 19.5565 166.813 18.5039C167.292 17.9888 167.875 17.5809 168.523 17.3067C169.171 17.0326 169.87 16.8985 170.574 16.9131C171.282 16.9005 171.986 17.0354 172.639 17.3092C173.293 17.5831 173.882 17.9899 174.37 18.5039C175.405 19.5565 175.925 21.0763 175.925 23.016C175.956 24.1741 175.7 25.3219 175.18 26.3572Z" fill="white"/>
<path d="M20 0C14.6957 0 9.6086 2.10713 5.85788 5.85786C2.10715 9.60859 0 14.6957 0 20C0 25.3043 2.10715 30.3914 5.85788 34.1421C9.6086 37.8929 14.6957 40 20 40H20.3016C24.4049 39.9138 28.3843 38.5781 31.7085 36.171C35.0327 33.764 37.5436 30.4002 38.906 26.5287H30.4021C29.2938 28.2881 27.7594 29.7395 25.9412 30.7484C24.1229 31.7573 22.0794 32.2911 20 32.3004H19.4619C17.4639 32.214 15.5173 31.6416 13.7906 30.6328C12.0639 29.624 10.6094 28.2092 9.55317 26.5111C8.49693 24.813 7.87086 22.8829 7.72923 20.8881C7.5876 18.8934 7.93469 16.8942 8.74041 15.0639C9.54612 13.2336 10.7861 11.6275 12.3529 10.3848C13.9197 9.14213 15.766 8.3004 17.7317 7.9326C19.6974 7.56481 21.7231 7.68206 23.6332 8.27418C25.5433 8.8663 27.2801 9.91543 28.6931 11.3306L29.0716 11.709L21.2951 19.4855H39.9941C39.851 14.2748 37.6828 9.32504 33.9497 5.68692C30.2167 2.0488 25.2127 0.00880593 20 0Z" fill="white"/>
</g>
<defs>
<clipPath id="clip0_427_2106">
<rect width="180.686" height="40" fill="white"/>
</clipPath>
</defs>
</svg>
